<svg height="1000pt" preserveAspectRatio="xMidYMid meet" viewBox="0 0 1000 1000" width="1000pt" xmlns="http://www.w3.org/2000/svg"><g transform="matrix(.1 0 0 -.1 0 1000)"><path d="m2309 6394c-178-182-432-306-708-345-86-12-390-8-423 6-17 7-18-2-18-106 0-475 136-948 394-1372 194-320 500-657 768-846l46-33 60 40c70 48 140 110 280 246 564 550 872 1251 872 1983 0 94 0 95-22 88-13-3-96-9-184-12-186-6-306 9-464 59-179 57-315 138-478 285l-69 62zm237-231c71-48 185-107 274-140 159-60 437-102 587-88l73 7-6-84c-16-257-50-449-115-652-126-394-343-754-654-1084-82-87-289-273-326-293-36-19-383 311-538 511-286 368-477 787-545 1195-17 99-36 295-36 364v43l78-7c144-12 369 20 549 80 165 55 309 138 424 243l53 49 62-52c33-29 88-70 120-92z"/><path d="m2896 5737c-17-13-17-15 9-35 22-17 31-20 42-11s17 8 27-6c8-11 20-16 30-12 19 7 21 48 4 65-16 16-90 15-112-1z"/><path d="m2655 5161c8-14-46-54-58-42-7 7-5 16 4 27 13 16 11 17-21 11-329-55-407-69-418-73-10-3-9-9 3-28 20-31 3-44-23-18-11 11-21 24-23 30-3 6-39 4-104-8-72-12-93-19-75-23 28-8 766-117 786-117 22 0 20 213-2 234-16 17-79 23-69 7zm-102-56c-4-15-66-12-71 3-3 10 6 13 34 10 22-2 38-7 37-13z"/><path d="m1902 4603 3-147 380-57c209-32 399-60 422-64 34-5 46-2 62 14 20 20 21 33 21 184v164l-117 16c-153 22-143 23-143-21v-38l-287 42c-159 24-300 46-316 48l-28 6z"/><path d="m4445 6133c-43-8-80-15-81-16s-5-14-9-30c-6-24-4-27 16-27 54-1 54 3 57-302 2-156 0-293-3-306-3-12-17-28-30-34-18-8-25-19-25-40v-29l118 3 117 3 3 33c3 28 0 32-21 32-14 0-28 7-31 16s-6 73-6 143v127l39 22c48 27 85 28 111 2 18-18 20-33 20-154 0-134-5-155-39-168-5-1-11-16-13-33l-3-30 115 4c119 3 130 7 130 49 0 18-6 22-29 22-41 0-45 20-31 166 19 186 8 229-67 260-59 25-104 18-166-26-30-22-57-40-59-40-5 0 9 271 17 323 7 47 7 47-21 46-16-1-65-8-109-16z"/><path d="m7455 6140c-22-4-61-11-87-14-45-7-48-9-48-37 0-22 5-29 19-29 11 0 27-7 35-16 14-13 16-55 16-305v-289l-30-32c-16-17-30-40-30-52 0-20 4-21 117-18 65 2 119 5 120 5 0 1 3 16 5 32 3 26 0 30-24 33-22 3-29 10-33 36-8 42 13 599 24 648 5 20 6 39 3 42-7 7-36 6-87-4z"/><path d="m3755 6050c-1-3-6-56-10-117l-7-113h46c41 0 46 2 46 23 0 79 35 117 106 117h35l-3-249c-3-226-5-251-22-269-10-12-32-22-49-24-26-2-33-9-41-36-5-18-7-33-5-35 2-1 86-1 185 1l182 3 4 35 4 34h-42c-73 0-74 2-74 248 0 119 3 234 6 255 6 34 9 37 41 37 47 0 78-34 87-93l7-47h45 44l-6 113c-4 61-8 113-9 115-5 5-567 7-570 2z"/><path d="m5687 6043c-12-11-8-75 4-68 5 4 21 4 35 1l24-6v-259c0-280 0-278-57-295-18-6-23-15-23-39v-32h208c175 1 213 4 247 19 50 21 103 71 121 113 19 44 18 119-2 153-17 28-88 80-111 80-22 0-15 15 16 33 86 50 103 183 33 251-49 46-105 56-307 56-100 0-185-3-188-7zm358-113c66-62 20-190-69-190-73 0-76 4-76 94 0 125 2 129 67 124 37-3 60-11 78-28zm-7-290c75-34 93-127 36-181-22-20-36-24-91-24-85 0-93 10-93 126v88l28 4c56 8 78 6 120-13z"/><path d="m5115 5836c-95-45-148-132-149-246-3-204 172-310 354-216 58 30 65 36 63 61-1 15-4 30-7 33-3 2-33-3-67-12-73-21-116-15-158 20-27 22-51 75-51 112 0 9 35 12 140 12 159 0 160 0 160 87-1 74-31 130-82 153-60 27-140 26-203-4zm131-81c17-17 24-34 22-53-3-27-4-27-86-32l-83-5 6 25c20 81 92 114 141 65z"/><path d="m6418 5842c-75-15-78-17-78-43 0-22 6-29 29-34 38-8 41-22 41-182 0-120-2-135-20-153-11-11-24-20-30-20-5 0-10-13-10-30v-30h134c130 0 134 1 140 23 11 42 7 47-33 47-59 0-64 13-56 137 8 134 8 135 46 157s59 15 59-21c0-42 12-54 47-47 30 6 30 6 37 89 3 46 9 90 12 99 5 13-2 16-35 16-52 0-89-19-130-66l-33-37 3 54c3 51 2 54-21 55-14 1-60-5-102-14z"/><path d="m6935 5836c-98-46-146-128-146-250 0-115 40-187 126-227 46-21 129-25 186-7 51 15 114 70 141 122 26 50 36 171 19 234-15 53-64 110-116 133-58 27-148 25-210-5zm133-82c32-22 51-66 58-133 14-125-19-201-86-201-75 0-109 59-110 188 0 114 26 161 90 162 14 0 36-7 48-16z"/><path d="m8040 5833c-97-51-146-150-137-276 6-93 42-152 116-189 79-40 149-39 233 5 62 32 79 55 60 85-7 10-22 9-75-5-60-16-71-16-109-3-50 18-88 67-88 116v34h133c72 0 138 4 146 9 22 14 19 131-5 172-33 55-67 73-147 77-64 3-78 0-127-25zm141-74c14-14 19-30 17-52l-3-32-78-5c-72-5-77-4-77 15 2 73 94 121 141 74z"/><path d="m7606 5828c-9-35-8-38 19-38 49 0 41-28-29-99-36-36-66-71-66-77s33-64 74-130c48-78 84-124 101-132 27-13 112-16 139-6 26 10 21 61-6 69-36 11-75 53-130 139l-50 78 48 50c27 27 70 63 96 80 40 26 57 50 58 81 0 4-56 7-124 7-120 0-124-1-130-22z"/><path d="m5390 5133c-47-8-86-16-87-17-1 0-4-13-8-29-6-24-4-27 17-27 40 0 48-18 48-111v-86l-67-5c-84-6-137-32-190-92-119-135-76-374 74-415 57-16 65-14 131 28 56 37 61 38 67 21 10-31 55-60 91-60 27 0 43 9 74 41 56 58 55 74-5 74h-40l-3 165c-3 158 12 460 24 508 8 26-1 27-126 5zm-52-369c22-6 22-8 20-153l-3-146-43-15c-38-13-46-13-69 0-39 22-62 68-69 138-14 133 53 205 164 176z"/><path d="m3789 5026c-1-14-2-32-3-38-1-8 8-12 22-10 50 7 52-2 52-267 0-266-3-282-54-295-18-4-25-14-28-38l-3-33h210c207 1 211 1 260 27 82 43 125 106 125 183 0 66-55 134-123 150l-28 7 41 35c52 45 70 80 70 141s-29 107-85 136c-36 19-60 21-247 24l-208 3zm341-81c38-20 50-43 50-98 0-36-6-51-29-76-30-32-56-37-117-25l-29 5 3 92c2 51 5 98 7 105 6 17 80 15 115-3zm-11-295c19-5 47-22 63-37 22-21 28-36 28-71 0-24-5-52-10-63-18-32-68-52-121-47-74 7-79 16-79 124v93l28 4c49 7 57 7 91-3z"/><path d="m6790 4914c-19-14-59-39-87-56-45-25-53-34-53-59 0-21 5-29 18-29 37 0 42-20 42-154 1-219 21-264 119-274 47-4 54-2 106 37 68 52 66 71-10 68-33-1-59 3-67 11-14 14-25 243-14 287 6 22 11 23 68 22l63-2 3 38 3 37h-64-64l5 50c4 44 2 50-14 50-11-1-35-12-54-26z"/><path d="m6070 4873c-29-9-91-15-172-16-123-2-127-3-170-32-23-17-53-49-65-70-41-72-24-185 34-222l24-16-48-42-48-42 18-37c12-26 30-43 57-55l41-18-56-42c-49-37-54-45-49-69 24-106 169-154 310-101 135 51 206 176 137 241-36 32-74 45-181 58-116 15-152 27-152 50 0 27 16 33 84 31 102-3 184 38 223 113 21 41 21 117-1 150-22 34-14 46 30 46 22 0 34 5 34 14 0 7 3 28 6 45 7 35 7 35-56 14zm-175-99c25-10 45-59 45-114 0-41-5-56-25-75-28-29-70-32-102-10-45 32-56 143-17 186 17 19 66 25 99 13zm52-487c33-10 38-16 38-42 0-73-164-106-207-41-13 19-9 61 8 85 15 21 22 23 70 17 29-3 70-12 91-19z"/><path d="m4525 4843c-44-8-83-19-87-26-16-25-8-45 22-50l30-6v-169c0-159 1-171 22-197 26-33 75-55 122-55 24 0 49 11 87 40 59 44 69 48 69 25 0-31 47-65 89-65 34 0 45 6 85 51 25 28 43 55 40 60s-22 6-43 3c-61-10-65 3-57 169 4 78 11 160 16 182s6 43 2 47c-11 11-195-22-204-36-16-24-8-44 21-49 37-8 41-24 41-164v-113l-40-20c-71-36-115-19-126 51-6 33 11 256 22 312 7 32 7 32-111 10z"/><path d="m6310 4833c-97-51-146-150-137-276 6-93 42-152 116-189 79-40 149-39 233 5 62 32 79 55 60 85-7 10-22 9-75-5-60-16-71-16-109-3-50 18-88 67-88 116v34h133c72 0 138 4 146 9 22 14 19 131-5 172-33 55-67 73-147 77-64 3-78 0-127-25zm141-74c14-14 19-30 17-52l-3-32-78-5c-72-5-77-4-77 15 2 73 94 121 141 74z"/><path d="m5258 3993c-16-4-17-6-2-20 12-13 15-34 12-107-2-50-7-99-12-108-7-15-3-18 28-18 20 0 36 5 36 10 0 6-4 10-10 10-5 0-10 22-10 50 0 39 4 51 20 60 11 6 25 8 30 5 14-9 12-109-2-123-9-9-3-12 30-12 40 0 56 12 29 23-10 4-12 21-9 66 4 57 3 61-19 70-17 6-31 5-46-5-12-8-25-14-29-14-3 0-4 27-2 60 5 63 3 65-44 53z"/><path d="m7015 3975c-14-13-25-35-25-48 0-14-7-28-17-32-17-6-17-7 0-16 12-7 17-23 17-59 0-27-4-52-10-55-23-14-7-25 35-25 46 0 61 14 25 23-17 4-20 14-20 61 0 53 1 56 25 56 14 0 25 5 25 10 0 6-12 10-26 10-24 0-26 3-20 32 8 40 11 43 49 43 16 0 32 6 35 13 8 24-67 14-93-13z"/><path d="m7392 3993c-9-3-10-9-3-17 6-7 12-61 13-122l3-109 42-3c35-3 48 2 68 22 30 30 35 95 9 120-18 19-55 21-72 4-9-9-12 2-12 50 0 64-7 72-48 55zm107-148c12-25 12-32 0-54-10-17-23-26-39-26-22 0-25 5-28 37-6 74 38 103 67 43z"/><path d="m7865 3990c-11-5-14-9-7-9 7-1 12-16 12-41 0-37-2-40-28-40-67 0-102-110-46-147 22-14 29-14 46-4s25 10 45 0c20-11 26-10 40 4 16 16 16 17-1 17-16 0-17 10-14 115 3 123 2 126-47 105zm5-166c0-54-1-55-27-52-55 6-54 108 2 108 24 0 25-3 25-56z"/><path d="m4017 3984c-16-16-6-35 16-32 12 2 22 10 22 18 0 16-26 25-38 14z"/><path d="m3756 3961c-4-6 0-11 8-11 23 0 24-178 1-186-8-4-15-11-15-16 0-6 29-9 74-6 62 3 79 7 100 27 53 50 57 128 10 172-21 19-38 24-98 27-47 3-76 0-80-7zm111-21c35-13 53-46 53-96 0-43-39-87-73-82-20 3-22 9-25 82-3 72 1 106 11 106 2 0 18-5 34-10z"/><path d="m5148 3912c-28-17-37-32-18-32 6 0 10-23 10-51s5-59 10-70c13-23 43-25 60-4 10 13 9 15-9 15-19 0-21 6-21 55 0 48 2 55 20 55 11 0 20 5 20 10 0 6-9 10-19 10-11 0-21 7-23 14-3 13-7 12-30-2z"/><path d="m6466 3907c-25-20-27-25-13-30 13-5 17-20 17-67 0-68 13-82 58-60l27 13-25 6c-22 6-25 13-28 59-3 50-2 52 22 52 15 0 26 5 26 10 0 6-11 10-25 10-18 0-23 4-19 15 9 22-7 18-40-8z"/><path d="m8328 3912c-28-17-37-32-18-32 6 0 10-26 10-58s5-63 12-70c16-16 43-15 58 3 10 13 9 15-8 15-25 0-35 28-26 75 4 25 11 35 25 35 11 0 19 5 19 10 0 6-9 10-19 10-11 0-21 7-23 14-3 13-7 12-30-2z"/><path d="m4155 3902c-56-12-62-60-10-91 19-11 35-27 35-36 0-21-49-20-57 1-5 15-7 15-15 0-13-24-1-36 38-36 21 0 42 8 54 20 30 30 25 45-27 75-18 11-33 25-33 31 0 20 33 27 46 10 15-21 24-20 24 3 0 20-23 30-55 23z"/><path d="m4294 3896c-35-15-44-32-44-82 0-58 51-90 101-64 29 16 23 26-15 22-31-4-35-1-46 32-8 26-8 41 0 56 13 23 48 27 56 5 9-24 24-17 24 10 0 14-4 25-9 25s-15 2-23 5c-7 2-27-2-44-9z"/><path d="m4464 3902c-58-9-81-106-35-143 67-55 158 29 117 109-15 29-41 40-82 34zm50-60c12-41-5-82-34-82-34 0-54 82-28 108 22 22 52 10 62-26z"/><path d="m4812 3902c-32-5-64-59-57-97 10-57 63-80 115-50 25 14 24 14-17 15-31 0-45 5-53 19-18 34-12 41 40 41 46 0 50 2 50 24 0 35-33 55-78 48zm38-43c0-14-7-19-30-19-33 0-38 11-15 34 19 19 45 10 45-15z"/><path d="m5502 3902c-32-5-64-59-57-97 10-57 63-80 115-50 25 14 24 14-17 15-31 0-45 5-53 19-18 34-12 41 40 41 46 0 50 2 50 24 0 35-33 55-78 48zm38-43c0-14-7-19-30-19-33 0-38 11-15 34 19 19 45 10 45-15z"/><path d="m5725 3902c-56-12-62-60-10-91 19-11 35-27 35-36 0-21-49-20-57 1-5 15-7 15-15 0-13-24-1-36 38-36 21 0 42 8 54 20 30 30 25 45-27 75-18 11-33 25-33 31 0 20 33 27 46 10 15-21 24-20 24 3 0 20-23 30-55 23z"/><path d="m5874 3900c-54-22-72-100-31-138 25-24 57-28 88-12 29 16 23 27-11 22s-60 12-60 39c0 16 8 19 45 19 43 0 45 1 45 30 0 24-6 33-26 40-14 6-26 10-27 9-1 0-12-4-23-9zm46-46c0-9-11-14-30-14-34 0-41 23-13 39 20 11 43-3 43-25z"/><path d="m6044 3903c-58-11-81-107-35-144 28-23 60-24 87-4 18 13 17 14-18 15-40 0-58 19-58 62 0 44 50 67 65 31 6-16 8-15 16 6 5 13 8 25 7 26-8 7-46 12-64 8z"/><path d="m6341 3899c-35-14-50-39-51-81 0-63 55-97 111-68 31 17 22 26-21 22-35-4-41-1-50 23-5 14-10 28-10 31 0 2 23 4 50 4 46 0 50 2 50 24 0 14-10 32-22 40-25 18-25 18-57 5zm44-39c0-10-12-16-33-18-31-3-33-2-22 18 13 24 55 24 55 0z"/><path d="m6625 3902c-56-12-62-60-10-91 19-11 35-27 35-36 0-21-49-20-57 1-5 15-7 15-15 0-13-24-1-36 38-36 21 0 42 8 54 20 30 30 25 45-27 75-18 11-33 25-33 31 0 20 33 27 46 10 15-21 24-20 24 3 0 20-23 30-55 23z"/><path d="m6834 3900c-53-21-69-88-33-134 25-32 66-34 103-5 21 16 26 29 26 63 0 60-46 96-96 76zm52-44c11-43 1-91-20-95-35-6-59 55-40 103 10 26 53 20 60-8z"/><path d="m7188 3894c-35-18-36-26-3-18 27 7 55-9 55-31 0-7-20-18-45-24-38-10-45-15-45-36 0-35 34-51 65-31 20 13 24 13 29 1 7-19 30-19 46 0 10 12 10 15-4 15-13 0-16 11-16 60 0 56-2 61-26 70-30 12-23 13-56-6zm50-96c-2-17-10-23-27-23-32 0-39 23-9 34 35 15 40 13 36-11z"/><path d="m8007 3897c-12-4-25-13-29-20-12-19-9-62 5-76 10-11 10-14 0-18-19-7-16-30 5-42 16-9 16-11-3-25-16-12-18-18-9-33 15-24 65-28 104-8 25 13 31 22 28 43-3 24-9 28-55 36-57 10-75 36-25 36 46 0 75 27 70 66-3 23 0 34 9 34 7 0 13 4 13 8 0 11-83 10-113-1zm53-27c16-30 3-60-25-60-18 0-26 7-31 25-12 46 35 75 56 35zm9-149c23-15 5-41-28-41s-46 13-37 35c6 17 43 20 65 6z"/><path d="m8194 3900c-55-22-70-95-29-135 27-28 62-32 91-10 18 13 17 14-16 15-40 0-60 14-60 42 0 15 9 18 50 18 42 0 50 3 50 18 0 41-46 68-86 52zm46-41c0-14-7-19-30-19-34 0-41 23-13 38 23 13 43 4 43-19z"/><path d="m4000 3890c0-5 5-10 10-10 6 0 10-24 10-54s-4-58-10-61c-21-13-9-25 25-25 19 0 35 5 35 10 0 6-5 10-11 10-9 0-10 21-6 70l6 70h-30c-16 0-29-4-29-10z"/><path d="m4583 3882c10-10 17-22 17-26s7-33 16-63c13-45 19-54 36-51 15 2 27 21 44 67 14 35 29 70 35 78 9 10 4 13-27 13-30-1-35-3-22-10 15-9 15-14 0-60-9-27-19-50-23-50s-13 23-19 51c-10 43-10 53 1 60 9 6-1 9-30 9-42 0-43-1-28-18z"/><path d="m4920 3890c0-5 5-10 10-10 6 0 10-27 10-60s-4-60-10-60c-5 0-10-4-10-10 0-5 20-10 45-10s45 5 45 10c0 6-7 10-16 10-12 0-15 11-14 53 3 87 3 87-30 87-16 0-30-4-30-10z"/><path d="m5000 3885c-10-12-10-15 4-15 9 0 16-7 16-15s5-15 10-15c6 0 10 14 10 30 0 33-19 40-40 15z"/><path d="m6140 3890c0-5 5-10 10-10 6 0 10-27 10-60s-4-60-10-60c-5 0-10-4-10-10 0-5 20-10 45-10s45 5 45 10c0 6-7 10-16 10-12 0-15 11-14 53 3 87 3 87-30 87-16 0-30-4-30-10z"/><path d="m6220 3885c-10-12-10-15 4-15 9 0 16-7 16-15s5-15 10-15c6 0 10 14 10 30 0 33-19 40-40 15z"/><path d="m7570 3891c0-6 5-13 10-16 6-4 8-25 4-54-5-37-2-51 11-64 21-21 34-21 63-1 20 14 23 14 28 0 8-20 28-21 43-2 9 11 8 15-5 20-14 5-16 16-11 66l7 60h-30c-17 0-30-4-30-10 0-5 5-10 10-10 6 0 10-22 10-49 0-41-4-51-20-56-32-10-40 3-40 66 0 56-1 59-25 59-14 0-25-4-25-9z"/></g></svg>