<svg height="1000pt" preserveAspectRatio="xMidYMid meet" viewBox="0 0 1000 1000" width="1000pt" xmlns="http://www.w3.org/2000/svg"><g transform="matrix(.1 0 0 -.1 0 1000)"><path d="m4909 8404c-398-402-791-639-1317-794-303-90-603-131-962-132-227-1-275 2-435 26-99 14-182 26-184 26-7 0 8-611 19-750 69-874 300-1681 704-2465 441-854 1083-1660 1826-2292 200-170 432-338 454-330 20 8 216 148 301 215 282 224 657 584 918 882 1037 1187 1615 2489 1748 3935 17 188 24 805 10 805-7 0-70-9-141-20-444-69-973-33-1419 96-395 115-720 281-1026 525-60 48-137 115-170 149s-99 97-146 140l-85 79zm413-527c465-352 1026-564 1693-639 123-14 538-17 659-5l79 8-7-193c-19-524-94-991-236-1484-272-944-798-1869-1508-2655-356-394-960-938-1011-909-9 5-74 56-146 113-756 605-1436 1436-1877 2293-447 869-665 1696-703 2672l-7 163 94-8c136-12 493-8 638 6 240 24 557 88 760 155 445 145 867 388 1170 673l85 80 101-92c56-51 153-131 216-178z"/><path d="m6400 6760c-143-22-154-59-41-132 55-34 65-35 79-3 16 35 28 31 64-20 35-50 53-55 92-24 20 16 26 29 26 59 0 102-74 143-220 120z"/><path d="m5734 5333c-16-3-20-9-17-24 6-20-55-84-105-110-22-12-26-11-44 11l-20 25 43 37c32 27 39 38 26 38-50 0-394-64-407-76-10-8-29-11-50-8s-152-15-320-44c-157-28-306-53-332-57l-46-7 34-62c44-80 43-88-3-84-34 3-41 8-65 53-15 28-28 57-28 66 0 14-36 10-270-29-149-25-269-46-267-48 1-2 203-33 447-69 802-119 1575-235 1598-240l22-5v260c0 242-1 264-20 300-31 61-97 89-176 73zm-263-146c10-17 8-24-12-40s-34-18-82-14c-62 6-87 19-87 48 0 28 22 34 99 31 60-3 73-7 82-25z"/><path d="m3852 4855c0-16 2-22 5-12 2 9 2 23 0 30-3 6-5-1-5-18z"/><path d="m3852 4665c0-16 2-22 5-12 2 9 2 23 0 30-3 6-5-1-5-18z"/><path d="m3852 4470c0-14 2-19 5-12 2 6 2 18 0 25-3 6-5 1-5-13z"/><path d="m3852 3918 3-363 625-92c344-51 795-118 1004-149 208-31 398-56 421-56 50-1 102 27 127 69 14 25 17 77 20 428l3 399-290 42c-159 23-305 45-322 48l-33 5v-95c0-91-1-94-23-94-12 0-355 50-761 110-406 61-747 110-757 110-19 0-19-13-17-362z"/></g></svg>